<svg width="394" height="120" viewBox="0 0 394 120" fill="none" xmlns="http://www.w3.org/2000/svg">
<path d="M130.2 44.2C130.2 44.9733 129.92 45.64 129.36 46.2C128.827 46.7333 128.173 47 127.4 47H116.2C115.427 47 114.76 46.7333 114.2 46.2C113.667 45.64 113.4 44.9733 113.4 44.2V30.2C113.4 29.4267 113.667 28.7733 114.2 28.24C114.76 27.68 115.427 27.4 116.2 27.4H127.4C128.173 27.4 128.827 27.68 129.36 28.24C129.92 28.7733 130.2 29.4267 130.2 30.2V33H127V30.2H116.6V44.2H127V41.4H130.2V44.2ZM149.417 44.2C149.417 44.9733 149.137 45.64 148.577 46.2C148.044 46.7333 147.391 47 146.617 47H138.217C137.444 47 136.777 46.7333 136.217 46.2C135.684 45.64 135.417 44.9733 135.417 44.2V35.8C135.417 35.0267 135.684 34.3733 136.217 33.84C136.777 33.28 137.444 33 138.217 33H146.617C147.391 33 148.044 33.28 148.577 33.84C149.137 34.3733 149.417 35.0267 149.417 35.8V44.2ZM146.617 44.6V35.4H138.217V44.6H146.617ZM158.227 47H155.427V26.6L158.227 23.8V47ZM167.445 47H164.645V26.6L167.445 23.8V47ZM186.864 47H184.064V44.96L181.664 47H175.664C174.891 47 174.224 46.7333 173.664 46.2C173.131 45.64 172.864 44.9733 172.864 44.2V41.4C172.864 40.6267 173.131 39.9733 173.664 39.44C174.224 38.88 174.891 38.6 175.664 38.6H183.664L181.264 40.96H175.664V44.6H184.064V35.4H172.864L175.264 33H184.064C184.837 33 185.491 33.28 186.024 33.84C186.584 34.3733 186.864 35.0267 186.864 35.8V47ZM206.848 44.2C206.848 44.9733 206.568 45.64 206.008 46.2C205.475 46.7333 204.822 47 204.048 47H195.648V44.64L192.848 47.4V26.6L195.648 23.8V35L197.648 33H204.048C204.822 33 205.475 33.28 206.008 33.84C206.568 34.3733 206.848 35.0267 206.848 35.8V44.2ZM204.048 44.6V35.4H195.648V44.6H204.048ZM226.448 44.2C226.448 44.9733 226.168 45.64 225.608 46.2C225.075 46.7333 224.422 47 223.648 47H215.248C214.475 47 213.808 46.7333 213.248 46.2C212.715 45.64 212.448 44.9733 212.448 44.2V35.8C212.448 35.0267 212.715 34.3733 213.248 33.84C213.808 33.28 214.475 33 215.248 33H223.648C224.422 33 225.075 33.28 225.608 33.84C226.168 34.3733 226.448 35.0267 226.448 35.8V44.2ZM223.648 44.6V35.4H215.248V44.6H223.648ZM243.258 38.6H240.458V35.4H234.858V47H232.058V33H234.858V35L236.858 33H240.458C241.231 33 241.884 33.28 242.418 33.84C242.978 34.3733 243.258 35.0267 243.258 35.8V38.6ZM261.044 47H258.244V44.96L255.844 47H249.844C249.07 47 248.404 46.7333 247.844 46.2C247.31 45.64 247.044 44.9733 247.044 44.2V41.4C247.044 40.6267 247.31 39.9733 247.844 39.44C248.404 38.88 249.07 38.6 249.844 38.6H257.844L255.444 40.96H249.844V44.6H258.244V35.4H247.044L249.444 33H258.244C259.017 33 259.67 33.28 260.204 33.84C260.764 34.3733 261.044 35.0267 261.044 35.8V47ZM275.828 47H270.228C269.455 47 268.788 46.7333 268.228 46.2C267.695 45.64 267.428 44.9733 267.428 44.2V35.4H263.428L265.828 33H267.428V30.2L270.228 27.4V33H275.828V35.4H270.228V44.6H275.828V47ZM282.631 30.6H279.831V27.4H282.631V30.6ZM282.631 47H279.831V35L282.631 32.2V47ZM301.23 33L295.79 47H291.71L286.43 33H289.63L293.43 44.68H294.23L298.03 33H301.23ZM319.027 47H307.827C307.053 47 306.387 46.7333 305.827 46.2C305.293 45.64 305.027 44.9733 305.027 44.2V35.8C305.027 35.0267 305.293 34.3733 305.827 33.84C306.387 33.28 307.053 33 307.827 33H316.227C317 33 317.653 33.28 318.187 33.84C318.747 34.3733 319.027 35.0267 319.027 35.8V38.6L316.227 41.4H308.227L310.627 39H316.227V35.4H307.827V44.6H319.027V47ZM126.8 83.2C126.8 83.9733 126.52 84.64 125.96 85.2C125.427 85.7333 124.773 86 124 86H112.8V83.2H123.6V77.6H115.6C114.827 77.6 114.16 77.3333 113.6 76.8C113.067 76.24 112.8 75.5733 112.8 74.8V69.2C112.8 68.4267 113.067 67.7733 113.6 67.24C114.16 66.68 114.827 66.4 115.6 66.4H126.8V69.2H116V74.8H124C124.773 74.8 125.427 75.08 125.96 75.64C126.52 76.1733 126.8 76.8267 126.8 77.6V83.2ZM144.409 72L141.969 74.4H135.209V83.6H143.609V86H135.209C134.436 86 133.769 85.7333 133.209 85.2C132.676 84.64 132.409 83.9733 132.409 83.2V74.8C132.409 74.0267 132.676 73.3733 133.209 72.84C133.769 72.28 134.436 72 135.209 72H144.409ZM150.014 69.6H147.214V66.4H150.014V69.6ZM150.014 86H147.214V74L150.014 71.2V86ZM169.613 86H158.413C157.639 86 156.973 85.7333 156.413 85.2C155.879 84.64 155.613 83.9733 155.613 83.2V74.8C155.613 74.0267 155.879 73.3733 156.413 72.84C156.973 72.28 157.639 72 158.413 72H166.813C167.586 72 168.239 72.28 168.773 72.84C169.333 73.3733 169.613 74.0267 169.613 74.8V77.6L166.813 80.4H158.813L161.213 78H166.813V74.4H158.413V83.6H169.613V86ZM188.011 86H185.211V74.4H176.811V86H174.011V72H176.811V74L178.811 72H185.211C185.984 72 186.638 72.28 187.171 72.84C187.731 73.3733 188.011 74.0267 188.011 74.8V86ZM205.62 72L203.18 74.4H196.42V83.6H204.82V86H196.42C195.647 86 194.98 85.7333 194.42 85.2C193.887 84.64 193.62 83.9733 193.62 83.2V74.8C193.62 74.0267 193.887 73.3733 194.42 72.84C194.98 72.28 195.647 72 196.42 72H205.62ZM222.425 86H211.225C210.452 86 209.785 85.7333 209.225 85.2C208.692 84.64 208.425 83.9733 208.425 83.2V74.8C208.425 74.0267 208.692 73.3733 209.225 72.84C209.785 72.28 210.452 72 211.225 72H219.625C220.398 72 221.052 72.28 221.585 72.84C222.145 73.3733 222.425 74.0267 222.425 74.8V77.6L219.625 80.4H211.625L214.025 78H219.625V74.4H211.225V83.6H222.425V86ZM252.431 77.6C252.431 78.3467 252.151 79 251.591 79.56C251.031 80.12 250.378 80.4 249.631 80.4H238.831V86H235.631V72L238.431 69.2H235.631V66.4H249.631C250.378 66.4 251.031 66.68 251.591 67.24C252.151 67.8 252.431 68.4533 252.431 69.2V77.6ZM249.231 77.6V69.2H238.831V80L241.231 77.6H249.231ZM261.43 86H258.63V65.6L261.43 62.8V86ZM280.848 86H278.048V83.96L275.648 86H269.648C268.875 86 268.208 85.7333 267.648 85.2C267.115 84.64 266.848 83.9733 266.848 83.2V80.4C266.848 79.6267 267.115 78.9733 267.648 78.44C268.208 77.88 268.875 77.6 269.648 77.6H277.648L275.248 79.96H269.648V83.6H278.048V74.4H266.848L269.248 72H278.048C278.822 72 279.475 72.28 280.008 72.84C280.568 73.3733 280.848 74.0267 280.848 74.8V86ZM295.633 86H290.033C289.259 86 288.593 85.7333 288.033 85.2C287.499 84.64 287.233 83.9733 287.233 83.2V74.4H283.233L285.633 72H287.233V69.2L290.033 66.4V72H295.633V74.4H290.033V83.6H295.633V86ZM312.036 63.6L309.596 66H302.836V73.6L304.476 72H311.636L309.196 74.4H302.836V86H300.036V66.4C300.036 65.6267 300.303 64.9733 300.836 64.44C301.396 63.88 302.063 63.6 302.836 63.6H312.036ZM328.245 83.2C328.245 83.9733 327.965 84.64 327.405 85.2C326.872 85.7333 326.219 86 325.445 86H317.045C316.272 86 315.605 85.7333 315.045 85.2C314.512 84.64 314.245 83.9733 314.245 83.2V74.8C314.245 74.0267 314.512 73.3733 315.045 72.84C315.605 72.28 316.272 72 317.045 72H325.445C326.219 72 326.872 72.28 327.405 72.84C327.965 73.3733 328.245 74.0267 328.245 74.8V83.2ZM325.445 83.6V74.4H317.045V83.6H325.445ZM345.055 77.6H342.255V74.4H336.655V86H333.855V72H336.655V74L338.655 72H342.255C343.028 72 343.681 72.28 344.215 72.84C344.775 73.3733 345.055 74.0267 345.055 74.8V77.6ZM373.041 86H370.241V74.4H362.641V86H359.841V74.4H352.241V86H349.441V72H352.241V74L354.241 72H359.841C361.467 72 362.387 72.68 362.601 74.04L364.641 72H370.241C371.014 72 371.667 72.28 372.201 72.84C372.761 73.3733 373.041 74.0267 373.041 74.8V86Z" fill="#089BAB"/>
<path d="M88.7234 61.2261L88.7234 53.2551C88.7234 39.9442 84.0649 27.0531 75.5557 16.8171L66.9278 6.43825" stroke="#089BAB" stroke-opacity="0.5" stroke-width="2"/>
<path d="M86.7981 72.0403L82.7371 72.0403C68.5199 72.0403 55.371 64.4937 48.1993 52.2179L47.4188 50.882" stroke="#089BAB" stroke-opacity="0.5" stroke-width="2"/>
<path d="M57.6293 99.8641L56.2537 99.8252C36.357 99.2623 25.0543 76.816 36.4499 60.4962V60.4962" stroke="#089BAB" stroke-opacity="0.5" stroke-width="2"/>
<ellipse cx="87.5022" cy="66.0004" rx="11.1158" ry="11.5128" transform="rotate(-81.4734 87.5022 66.0004)" fill="#089BAB"/>
<ellipse cx="61.3007" cy="101.73" rx="11.1158" ry="11.5128" transform="rotate(-81.4734 61.3007 101.73)" fill="#089BAB"/>
<ellipse cx="71.5413" cy="13.1514" rx="11.5128" ry="11.9098" transform="rotate(-81.4734 71.5413 13.1514)" fill="#FEAD54"/>
<ellipse cx="42.3149" cy="50.1167" rx="17.4676" ry="17.8646" transform="rotate(-81.4734 42.3149 50.1167)" fill="#FEAD54"/>
</svg>
