<svg width="101" height="120" viewBox="0 0 101 120" fill="none" xmlns="http://www.w3.org/2000/svg">
<path d="M88.7234 61.2261L88.7234 53.2551C88.7234 39.9442 84.0649 27.0531 75.5557 16.8171L66.9278 6.43825" stroke="#089BAB" stroke-opacity="0.5" stroke-width="2"/>
<path d="M86.7981 72.0403L82.7371 72.0403C68.5199 72.0403 55.371 64.4937 48.1993 52.2179L47.4188 50.882" stroke="#089BAB" stroke-opacity="0.5" stroke-width="2"/>
<path d="M57.6293 99.8641L56.2537 99.8252C36.357 99.2623 25.0543 76.816 36.4499 60.4962V60.4962" stroke="#089BAB" stroke-opacity="0.5" stroke-width="2"/>
<ellipse cx="87.5022" cy="66.0004" rx="11.1158" ry="11.5128" transform="rotate(-81.4734 87.5022 66.0004)" fill="#089BAB"/>
<ellipse cx="61.3007" cy="101.73" rx="11.1158" ry="11.5128" transform="rotate(-81.4734 61.3007 101.73)" fill="#089BAB"/>
<ellipse cx="71.5413" cy="13.1514" rx="11.5128" ry="11.9098" transform="rotate(-81.4734 71.5413 13.1514)" fill="#FEAD54"/>
<ellipse cx="42.3149" cy="50.1167" rx="17.4676" ry="17.8646" transform="rotate(-81.4734 42.3149 50.1167)" fill="#FEAD54"/>
</svg>
